<?xml version="1.0" encoding="utf-8"?>
<!-- Generator: Adobe Illustrator 24.0.0, SVG Export Plug-In . SVG Version: 6.00 Build 0)  -->
<svg version="1.1" id="レイヤー_1" xmlns="http://www.w3.org/2000/svg" xmlns:xlink="http://www.w3.org/1999/xlink" x="0px"
	 y="0px" viewBox="0 0 134.061 17.473" style="enable-background:new 0 0 134.061 17.473;" xml:space="preserve">
<style type="text/css">
	.st0{fill:#3AB0B4;}
	.st1{fill:#231815;}
</style>
<g>
	<path class="st0" d="M77.586,13.235c-1.248,0-2.258,0.949-2.258,2.118c0,1.171,1.01,2.119,2.258,2.119
		c1.248,0,2.257-0.949,2.257-2.119C79.843,14.184,78.834,13.235,77.586,13.235"/>
	<path class="st0" d="M95.07,15.579h-5.193c-0.62,0-1.051-0.578-0.839-1.125l2.474-6.379c0.285-0.732,1.026-1.219,1.856-1.219h5.202
		c0.551,0,1.159-0.419,1.359-0.935c0.201-0.517-0.083-0.935-0.634-0.935H87.452c-0.83,0-1.571,0.487-1.856,1.219l-3.924,10.119
		c-0.212,0.546,0.22,1.125,0.84,1.125h11.833c0.55,0,1.158-0.419,1.359-0.935C95.903,15.997,95.619,15.579,95.07,15.579"/>
	<path class="st0" d="M115.9,4.985h-12.535c-0.831,0-1.572,0.487-1.857,1.219l-3.924,10.119c-0.212,0.546,0.22,1.125,0.84,1.125
		h12.535c0.83,0,1.572-0.488,1.856-1.22L116.74,6.11C116.952,5.563,116.521,4.985,115.9,4.985 M109.374,7.979l-2.475,6.379
		c-0.284,0.733-1.026,1.22-1.856,1.22h-3.238c-0.62,0-1.051-0.578-0.84-1.125l2.475-6.379c0.284-0.732,1.026-1.22,1.856-1.22h3.238
		C109.154,6.854,109.586,7.433,109.374,7.979"/>
	<path class="st0" d="M133.167,4.985h-12.27c-0.83,0-1.572,0.487-1.856,1.22l-3.878,9.997c-0.267,0.688,0.111,1.246,0.845,1.246
		s1.545-0.558,1.812-1.246l3.392-8.742c0.129-0.334,0.522-0.604,0.879-0.604c0.355,0,0.539,0.27,0.41,0.604l-3.392,8.742
		c-0.267,0.688,0.111,1.246,0.845,1.246c0.734,0,1.545-0.558,1.812-1.246l3.39-8.742c0.13-0.334,0.523-0.604,0.879-0.604h0.398
		c0.356,0,0.539,0.27,0.41,0.604l-3.439,8.864c-0.211,0.547,0.22,1.125,0.84,1.125h3.982c0.83,0,1.572-0.487,1.856-1.22
		l3.925-10.118C134.218,5.563,133.787,4.985,133.167,4.985"/>
	<path class="st1" d="M6.813,7.371l2.455-6.33C9.464,0.535,9.065,0,8.491,0H4.566c-0.922,0-1.745,0.54-2.06,1.353l-2.455,6.33
		c-0.197,0.506,0.203,1.04,0.777,1.04h3.925C5.674,8.724,6.497,8.183,6.813,7.371"/>
	<path class="st1" d="M21.173,0h-3.925c-0.922,0-1.745,0.54-2.06,1.353l-4.751,12.249c-0.315,0.813-1.138,1.353-2.06,1.353H4.444
		c-0.734,0-1.545,0.558-1.812,1.247c-0.267,0.688,0.111,1.247,0.845,1.247H14.05c0.922,0,1.745-0.54,2.06-1.353L21.949,1.04
		C22.146,0.536,21.747,0,21.173,0"/>
	<path class="st1" d="M32.915,7.49V1.234C32.915,0.553,32.327,0,31.6,0h-4.012c-0.726,0-1.315,0.552-1.315,1.234V7.49
		c0,0.681,0.589,1.234,1.315,1.234H31.6C32.327,8.724,32.915,8.172,32.915,7.49"/>
	<path class="st1" d="M46.493,0h-4.607c-0.784,0-1.507,0.393-1.899,1.029L30.6,16.284c-0.318,0.518,0.079,1.164,0.716,1.164h4.607
		c0.783,0,1.507-0.393,1.898-1.029l9.387-15.256C47.527,0.646,47.129,0,46.493,0"/>
	<path class="st1" d="M50.744,0h-0.488c-0.636,0-1.223,0.319-1.541,0.834l-0.832,1.354c-0.254,0.412,0.063,0.927,0.571,0.927h0.488
		c0.636,0,1.222-0.318,1.541-0.834l0.832-1.353C51.569,0.516,51.251,0,50.744,0"/>
	<path class="st1" d="M54.262,0h-0.488c-0.636,0-1.223,0.319-1.541,0.834l-0.832,1.354c-0.254,0.412,0.063,0.927,0.571,0.927h0.488
		c0.636,0,1.222-0.318,1.541-0.834l0.832-1.353C55.087,0.516,54.77,0,54.262,0"/>
	<path class="st1" d="M71.447,4.985h-4.012c-0.726,0-1.315,0.552-1.315,1.234v9.996c0,0.681,0.589,1.234,1.315,1.234h4.012
		c0.726,0,1.315-0.552,1.315-1.234V6.219C72.761,5.537,72.173,4.985,71.447,4.985"/>
	<path class="st1" d="M64.478,0h-4.607c-0.784,0-1.507,0.393-1.899,1.029l-9.386,15.256c-0.318,0.518,0.079,1.164,0.716,1.164h4.607
		c0.783,0,1.507-0.393,1.898-1.029l9.387-15.256C65.512,0.646,65.114,0,64.478,0"/>
	<path class="st1" d="M70.369,3.116h0.488c0.636,0,1.223-0.319,1.541-0.834l0.832-1.354C73.484,0.515,73.167,0,72.659,0h-0.488
		c-0.636,0-1.222,0.318-1.541,0.834l-0.832,1.353C69.544,2.6,69.861,3.116,70.369,3.116"/>
	<path class="st1" d="M76.178,0H75.69c-0.636,0-1.223,0.319-1.541,0.834l-0.832,1.354c-0.254,0.412,0.063,0.927,0.571,0.927h0.488
		c0.636,0,1.222-0.318,1.541-0.834l0.832-1.353C77.003,0.516,76.685,0,76.178,0"/>
</g>
<g>
</g>
<g>
</g>
<g>
</g>
<g>
</g>
<g>
</g>
</svg>
